PathFileType	4	(X/Y/Z)	C:/Users/beibeiliu/ov580/test_trc\sequence.33_training_dense_left.trc
DataRate	CameraRate	NumFrames	NumMarkers	Units	OrigDataRate	OrigDataStartFrame	OrigNumFrames
120	120	20	19	mm	120	141	169
Frame#	Time	ThumbCMC			ThumbMCP			ThumbIP			ThumbTip			IndexMCP			IndexPIP			IndexTip			MiddleMCP			MiddlePIP			MiddleTip			RingMCP			RingPIP			RingTip			PinkyMCP			PinkyPIP			PinkyTip			BackHand1			BackHand2			BackHand3	
		X0	Y0	Z0	X1	Y1	Z1	X2	Y2	Z2	X3	Y3	Z3	X4	Y4	Z4	X5	Y5	Z5	X6	Y6	Z6	X7	Y7	Z7	X8	Y8	Z8	X9	Y9	Z9	X10	Y10	Z10	X11	Y11	Z11	X12	Y12	Z12	X13	Y13	Z13	X14	Y14	Z14	X15	Y15	Z15	X16	Y16	Z16	X17	Y17	Z17	X18	Y18	Z18	
140	1.16667	-179.278	45.5447	77.6176	-179.23	67.832	60.076	-173.396	78.3632	38.0952	-166.441	89.2793	19.4239	-157.208	50.5829	15.0503	-140.849	74.0308	8.85598	-128.438	91.1082	22.0296	-145.119	30.6956	11.6035	-134.236	38.9511	-9.88248	-122.343	53.3511	-31.5263	-129.035	25.3268	19.8995	-116.052	46.2412	2.43704	-109.19	69.2573	4.30785	-117.475	14.3997	36.1164	-109.733	16.277	19.2478	-106.983	19.4705	1.96446	-145.949	8.36371	62.3229	-153.171	3.67324	88.1877	-174.513	16.6095	65.8313	
141	1.175	-178.781	52.3774	79.8899	-175.096	71.7474	60.4176	-173.83	85.234	40.2795	-165.157	92.2463	24.8357	-160.11	57.562	17.3956	-141.888	76.8728	11.4962	-126.364	96.4812	30.1214	-146.597	33.7807	10.6137	-138.915	47.7662	-14.5418	-127.191	57.3954	-32.0781	-130.832	22.1307	16.2243	-121.282	33.0978	-2.57286	-110.744	48.9893	-14.3531	-120.248	11.1541	31.7462	-115.533	11.9366	18.668	-111.731	11.443	-4.73895	-147.491	11.8879	57.0189	-153.86	5.1399	81.8639	-171.676	22.2806	67.7768	
142	1.18333	-178.514	57.3568	82.5309	-175.426	76.4262	61.2586	-172.112	88.8594	40.4553	-164.178	96.6429	23.3593	-159.432	62.2151	16.697	-136.758	80.7608	13.6296	-122.444	94.0684	31.3712	-149.845	42.2014	7.06377	-139.44	49.8146	-13.093	-124.994	61.7753	-34.4705	-138.206	24.2766	17.1669	-128.185	27.5969	-5.30166	-122.393	41.1524	-27.4246	-122.986	10.3531	30.9167	-121.083	10.9132	15.2911	-115.269	3.88097	-2.07413	-151.084	15.0523	57.1196	-154.584	6.60145	79.7154	-172.753	25.155	67.7644	
143	1.19167	-178.889	57.648	80.0631	-175.463	77.1763	60.8402	-173.576	90.4884	41.7142	-165.577	99.4368	23.6514	-159.099	66.71	17.0362	-139.116	85.0724	12.6172	-123.148	99.189	31.3078	-146.966	44.0865	4.88516	-137.691	55.2881	-14.7253	-127.853	69.3514	-34.4776	-137.325	25.9268	17.0418	-128.526	28.8238	-8.70381	-124.61	34.8157	-24.595	-123.906	14.2553	35.0974	-121.057	11.1003	15.4305	-114.746	2.29919	-4.18946	-153.325	17.5869	53.6981	-154.392	8.94944	79.3264	-171.619	28.34	66.4631	
144	1.2	-177.996	58.3181	80.0404	-178.845	80.2686	59.0604	-173.952	92.1163	39.7539	-167.008	104.155	21.087	-160.595	66.7188	14.9397	-143.093	88.7875	8.83663	-124.398	106.422	22.6787	-147.164	45.8884	6.64129	-137.572	57.891	-12.1512	-124.058	77.4462	-30.9851	-135.935	29.6533	11.7412	-129.231	31.9626	-4.6687	-119.911	37.4041	-28.5231	-125.076	18.908	32.8944	-117.237	10.9408	14.4629	-114.454	3.46371	1.63996	-152.194	19.6757	53.9241	-155.655	10.3194	78.5622	-173.275	31.3005	62.6086	
145	1.20833	-179.582	61.8602	74.6873	-176.799	82.2214	57.9912	-171.072	95.0764	37.1057	-163.322	105.954	21.3428	-159.537	68.4312	9.75783	-146.846	83.8389	-1.32378	-130.792	103.267	-1.48519	-143.899	48.8534	7.00802	-131.026	63.5414	-11.4336	-113.637	90.0115	-20.7206	-135.417	33.0363	15.8131	-124.207	35.3824	-7.03119	-115.896	44.0203	-27.981	-121.413	15.4355	30.7547	-114.814	11.3716	17.6535	-110.375	2.609	1.71949	-147.99	20.9736	54.2321	-154.418	11.181	77.1529	-173.431	33.1101	63.7238	
146	1.21667	-174.336	61.7127	75.633	-171.94	84.0362	57.921	-171.332	100.99	41.508	-159.253	108.095	24.0248	-159.004	66.5252	9.2221	-152.872	81.3151	-5.52404	-135.477	100.333	-20.8657	-142.515	55.9426	7.35515	-123.813	74.61	-5.88262	-108.198	99.4177	2.62721	-130.759	36.8962	12.497	-119.571	42.2183	-9.35709	-111.176	49.3894	-22.4759	-118.741	21.6919	32.9053	-115.144	16.6912	17.725	-110.768	6.92574	0.296127	-146.438	25.2702	54.6927	-152.856	15.3588	75.4707	-171.053	32.3017	62.2603	
147	1.225	-173.973	64.7838	74.0807	-172.943	88.439	58.4991	-165.205	98.2699	39.1916	-158.186	112.703	21.9431	-160.837	67.3181	10.2979	-151.666	77.8758	-7.6973	-141.989	89.7518	-25.008	-133.783	60.5837	9.47724	-119.466	82.736	1.77325	-108.613	104.135	21.5163	-124.788	39.7964	16.5851	-116.39	49.0691	-5.77375	-103.188	58.0367	-22.6436	-115.475	23.3876	34.9341	-110.594	19.5683	15.938	-105.111	10.2004	0.707221	-141.338	26.4279	52.6684	-152.329	18.9449	80.1455	-170.836	38.172	63.5834	
148	1.23333	-175.68	62.7618	76.3156	-171.219	84.9999	55.8062	-165.348	96.4911	38.7144	-157.153	111.198	21.935	-156.595	61.761	11.8298	-147.111	70.4146	-7.49325	-136.939	80.3155	-28.0652	-133.992	62.0336	11.8331	-116.779	87.0105	9.30106	-109.271	102.359	36.9467	-119.983	40.2087	16.443	-112.223	50.2876	-3.10042	-102.609	64.7434	-20.2215	-113.645	25.7998	35.1382	-108.205	21.1239	16.453	-100.733	12.533	0.369669	-139.479	25.8598	53.4621	-152.356	17.6432	81.0203	-167.63	34.3392	62.156	
149	1.24167	-172.697	58.3131	76.1162	-172.399	83.3732	59.2313	-165.54	95.5969	35.9339	-154.204	105.268	18.6274	-152.339	59.3981	8.62956	-143.053	65.2464	-5.67312	-133.761	78.6597	-28.1817	-132.819	59.7206	14.9376	-114.072	84.2969	12.7642	-115.052	101.521	45.2492	-121.699	41.5159	16.852	-108.545	51.7068	-1.84613	-98.2423	62.9711	-13.9692	-112.267	26.187	37.0747	-104.686	21.185	21.5067	-97.3084	15.2367	1.81486	-137.479	21.5594	55.1781	-145.835	14.1709	81.0052	-168.571	31.7219	63.1614	
150	1.25	-171.557	56.4364	73.6672	-169.483	80.5996	55.3618	-166.714	92.8593	39.9502	-157.872	104.978	21.7244	-151.234	57.1373	12.5082	-142.517	68.533	-8.34015	-127.924	76.7576	-23.3502	-126.826	59.9796	15.3652	-111.762	85.9422	20.4959	-114.28	98.0324	45.729	-120.699	43.4744	15.1188	-106.704	55.2095	0.242752	-96.6204	70.2726	-10.8354	-109.631	22.9482	35.7725	-103.251	22.9343	17.6308	-97.1038	15.6301	-0.0863277	-139.535	21.2151	58.626	-146.422	14.5415	80.326	-167.547	29.0844	63.2112	
151	1.25833	-174.724	61.1241	72.7092	-167.361	79.2518	55.9047	-165.963	95.241	35.5751	-154.852	103.354	20.5358	-151.101	60.4696	12.5237	-139.416	72.1102	-5.48139	-124.244	84.8272	-20.937	-127.484	59.9598	16.822	-110.932	87.0213	19.1091	-114.891	98.3713	50.1462	-117.282	44.282	14.3922	-105.539	58.963	0.548717	-95.2082	72.8934	-7.70348	-112.084	26.3916	31.5682	-103.285	23.9763	16.8825	-97.7547	19.767	1.88589	-137.818	20.2511	53.0477	-146.065	13.7629	77.8625	-163.274	30.8289	59.0674	
152	1.26667	-172.901	66.336	71.8262	-168.133	86.7936	59.0364	-165.018	100.856	38.8286	-155.819	110.666	21.7597	-151.104	69.6252	8.34855	-139.102	81.6383	-8.36954	-124.234	91.5016	-20.3845	-128.202	64.1425	11.3056	-111.378	89.2463	12.5087	-107.806	99.6189	42.5254	-121.754	46.482	13.8246	-107.095	58.7134	-1.10791	-91.5019	77.7365	-11.0133	-112.51	26.1849	29.5809	-108.801	28.3964	11.067	-102.784	24.0814	-5.21877	-142.279	25.4881	53.0734	-153.73	19.0328	74.3412	-166.91	36.6769	59.5013	
153	1.275	-167.35	76.5517	71.1344	-162.455	100.542	56.769	-154.027	109.291	37.0294	-145.172	120.315	22.8889	-148.838	76.6444	8.66121	-134.249	90.2345	-13.1002	-114.994	98.4211	-23.8839	-131.533	72.1735	2.20422	-107.668	87.6075	1.33077	-98.5703	101.877	28.5495	-124.913	47.848	9.29793	-109.983	61.2983	-10.6656	-97.9475	74.9996	-18.3178	-122.62	33.3133	21.7583	-115.967	30.0301	2.52569	-115.279	26.5512	-12.2479	-146.271	32.9135	44.0244	-158.052	25.9525	71.1008	-170.578	48.4755	57.2974	
154	1.28333	-155.877	90.426	71.1388	-144.221	114.772	56.7185	-134.081	125.121	36.1114	-122.495	125.955	21.2093	-143.089	95.104	2.56924	-126.585	97.6257	-13.858	-108.85	103.795	-25.3075	-133.317	77.3601	-2.02986	-108.933	90.4003	-12.779	-83.6474	97.9303	7.99706	-133.894	61.0205	3.98936	-116.503	65.1423	-19.1468	-102.779	73.931	-31.2782	-131.925	37.7288	15.9873	-132.125	40.1617	-4.71969	-132.218	35.0196	-17.9484	-154.39	47.8837	41.7832	-163.014	40.3286	67.4159	-167.243	69.8944	53.731	
155	1.29167	-132.286	100.934	76.2319	-113.181	115.056	57.6436	-100.189	125.912	41.6082	-87.526	129.632	21.3887	-124.133	113.082	8.6596	-107.884	115.51	-13.2039	-88.5323	113.051	-27.212	-129.545	95.1865	-3.48809	-105.591	99.6875	-24.2057	-79.9457	93.6735	-28.2684	-134.634	77.1892	-0.720749	-127.188	76.5314	-23.0503	-115.392	82.4575	-41.9216	-141.377	54.8269	6.7913	-143.05	52.8531	-8.86397	-150.746	53.0932	-22.3561	-153.467	68.9532	39.3661	-163.434	63.1851	65.4254	-156.128	87.6773	57.1258	
156	1.3	-103.117	100.23	72.2928	-82.4923	105.945	58.1107	-65.2849	112.945	39.9447	-51.9766	112.751	23.9606	-95.7499	115.601	4.76026	-81.4708	114.313	-12.9886	-64.4587	107.151	-28.1334	-114.236	109.604	-7.38	-102.069	112.329	-28.1504	-86.0855	106.965	-51.3114	-131.851	93.9587	-5.91676	-125.169	101.69	-25.7914	-122.25	104.33	-47.1117	-140.937	76.3433	6.6225	-146.63	79.4197	-10.0118	-159.86	81.9743	-23.1342	-141.224	87.5989	36.1934	-148.618	84.0416	61.9107	-130.906	102.893	54.1409	
157	1.30833	-85.1237	89.831	70.3256	-64.2535	87.3458	54.8506	-47.179	90.3431	33.2664	-40.0993	88.1498	13.4876	-71.659	114.192	5.73638	-61.1467	109.363	-14.4604	-46.9594	98.7117	-34.5662	-99.5811	116.691	-5.13054	-87.5355	124.296	-28.0186	-81.0768	126.828	-55.8866	-120.909	107.047	-7.07902	-114.527	115.426	-27.3165	-112.169	120.795	-50.291	-138.136	94.8963	1.21811	-141.665	101.35	-12.8682	-148.283	111.097	-28.0947	-130.02	99.8242	31.9644	-137.377	94.3003	58.059	-108.014	106.342	56.5922	
158	1.31667	-81.3103	79.0665	57.95	-57.6894	72.8212	42.3302	-48.1135	71.5043	24.3032	-37.3795	68.8358	5.56801	-62.7481	106.277	-2.69448	-52.0032	100.545	-23.2151	-44.2708	90.5147	-42.7816	-83.6917	118.731	-12.2381	-77.2602	123.583	-28.1845	-71.7883	131.285	-52.5092	-108.666	114.156	-15.2367	-100.468	117.446	-34.8938	-97.3991	115.812	-55.901	-131.912	104.868	-6.02386	-135.623	109.887	-18.9553	-139.453	122.351	-36.4916	-120.528	102.125	30.4211	-130.391	98.4847	53.1669	-98.1689	103.548	49.9859	
159	1.325	-84.0002	71.1185	53.5179	-61.0478	64.0877	33.264	-49.1311	63.7227	12.9213	-40.5853	60.0958	-5.00172	-59.6106	98.0138	-3.81528	-49.3275	92.2012	-30.7107	-47.3093	83.0969	-47.9373	-82.8138	113.893	-15.0053	-73.33	119.716	-36.9869	-63.2953	127.037	-58.0005	-104.176	110.355	-20.1714	-91.2464	107.347	-43.4374	-86.2558	90.9723	-61.3783	-124.872	108.048	-12.8021	-124.455	113.679	-29.0793	-125.208	124.823	-42.0802	-119.137	105.884	25.2595	-127.93	101.741	46.5332	-98.589	101.111	42.6209	
